<svg height="1rem" viewBox="0 0 907 198" fill="none" xmlns="http://www.w3.org/2000/svg">
<g clip-path="url(#clip0_3564_26850)">
<path d="M45.41 126.85C39.19 126.85 33.97 129.02 29.75 133.36C25.53 137.7 23.41 143.63 23.41 151.14C23.41 158.65 25.55 164.6 29.83 169C34.11 173.4 39.36 175.6 45.58 175.6C51.09 175.6 55.49 174.16 58.78 171.29C62.06 168.42 64.29 164.98 65.47 160.99L86.06 167.85C83.95 175.83 79.37 182.69 72.33 188.44C65.29 194.19 56.37 197.06 45.58 197.06C32.67 197.06 21.85 192.69 13.11 183.95C4.37 175.21 0 164.27 0 151.13C0 137.99 4.31 126.9 12.94 118.22C21.56 109.54 32.21 105.2 44.88 105.2C55.91 105.2 64.94 108.05 71.98 113.74C79.02 119.43 83.54 126.32 85.53 134.42L64.59 141.46C61.77 131.72 55.38 126.85 45.41 126.85Z" fill="white"/>
<path d="M94.1602 170.85C94.1602 163.46 96.5601 157.53 101.38 153.07C106.19 148.61 112.41 145.8 120.04 144.62L141.34 141.45C145.68 140.86 147.85 138.81 147.85 135.29C147.85 132.01 146.59 129.31 144.07 127.19C141.55 125.08 137.94 124.02 133.25 124.02C128.32 124.02 124.42 125.37 121.55 128.07C118.67 130.77 117.06 134.11 116.71 138.1L95.9402 133.7C96.7602 126.19 100.45 119.56 107.03 113.81C113.6 108.06 122.28 105.19 133.08 105.19C145.99 105.19 155.49 108.27 161.59 114.43C167.69 120.59 170.74 128.48 170.74 138.1V180.69C170.74 185.85 171.09 190.43 171.8 194.42H150.33C149.74 191.84 149.45 188.38 149.45 184.04C143.93 192.61 135.43 196.89 123.93 196.89C115.01 196.89 107.83 194.31 102.37 189.15C96.9102 183.99 94.1902 177.89 94.1902 170.85H94.1602ZM128.83 179.47C134.34 179.47 138.89 177.92 142.47 174.81C146.05 171.7 147.84 166.57 147.84 159.41V155.54L128.3 158.53C121.14 159.59 117.56 163.22 117.56 169.44C117.56 172.26 118.56 174.63 120.55 176.57C122.54 178.51 125.3 179.47 128.82 179.47H128.83Z" fill="white"/>
<path d="M246.22 194.43C245.75 192.08 245.52 188.97 245.52 185.1C243.29 188.97 239.98 191.88 235.58 193.81C231.18 195.74 226.52 196.71 221.59 196.71C211.38 196.71 203.34 193.45 197.48 186.94C191.61 180.43 188.68 172.3 188.68 162.56V107.82H212.09V157.8C212.09 162.96 213.44 167.16 216.14 170.38C218.84 173.61 222.77 175.22 227.93 175.22C233.09 175.22 236.96 173.67 239.9 170.56C242.83 167.45 244.3 163.32 244.3 158.15V107.81H267.71V178.74C267.71 184.26 268 189.48 268.59 194.4H246.24L246.22 194.43Z" fill="white"/>
<path d="M281.768 170.32L301.828 165.92C302.058 169.68 303.558 172.81 306.318 175.34C309.078 177.86 312.858 179.12 317.668 179.12C321.308 179.12 324.118 178.3 326.118 176.66C328.108 175.02 329.108 172.96 329.108 170.5C329.108 166.16 325.998 163.34 319.778 162.05L308.338 159.41C300.238 157.65 294.168 154.48 290.118 149.91C286.068 145.33 284.048 139.88 284.048 133.54C284.048 125.68 287.128 118.99 293.288 113.48C299.448 107.97 307.158 105.21 316.428 105.21C322.298 105.21 327.458 106.06 331.918 107.76C336.378 109.46 339.838 111.63 342.298 114.27C344.758 116.91 346.638 119.58 347.928 122.28C349.218 124.98 350.038 127.62 350.388 130.2L330.848 134.6C330.378 131.55 328.998 128.85 326.708 126.5C324.418 124.15 321.048 122.98 316.588 122.98C313.538 122.98 310.928 123.8 308.758 125.44C306.588 127.08 305.498 129.14 305.498 131.6C305.498 135.82 308.138 138.41 313.418 139.34L325.738 141.98C334.068 143.74 340.438 146.97 344.838 151.66C349.238 156.35 351.438 161.99 351.438 168.56C351.438 176.3 348.508 182.99 342.638 188.62C336.768 194.25 328.498 197.07 317.818 197.07C311.718 197.07 306.258 196.16 301.448 194.34C296.638 192.52 292.908 190.18 290.268 187.3C287.628 184.43 285.628 181.55 284.288 178.68C282.938 175.81 282.088 173.02 281.738 170.32H281.768Z" fill="white"/>
<path d="M360.801 170.85C360.801 163.46 363.201 157.53 368.021 153.07C372.831 148.61 379.051 145.8 386.681 144.62L407.981 141.45C412.321 140.86 414.491 138.81 414.491 135.29C414.491 132.01 413.231 129.31 410.711 127.19C408.191 125.08 404.581 124.02 399.891 124.02C394.961 124.02 391.061 125.37 388.191 128.07C385.311 130.77 383.701 134.11 383.351 138.1L362.581 133.7C363.401 126.19 367.091 119.56 373.671 113.81C380.241 108.06 388.921 105.19 399.721 105.19C412.631 105.19 422.131 108.27 428.231 114.43C434.331 120.59 437.381 128.48 437.381 138.1V180.69C437.381 185.85 437.731 190.43 438.441 194.42H416.971C416.381 191.84 416.091 188.38 416.091 184.04C410.571 192.61 402.071 196.89 390.571 196.89C381.651 196.89 374.471 194.31 369.011 189.15C363.551 183.99 360.831 177.89 360.831 170.85H360.801ZM395.471 179.47C400.981 179.47 405.531 177.92 409.111 174.81C412.691 171.7 414.481 166.57 414.481 159.41V155.54L394.941 158.53C387.781 159.59 384.201 163.22 384.201 169.44C384.201 172.26 385.201 174.63 387.191 176.57C389.181 178.51 391.941 179.47 395.461 179.47H395.471Z" fill="white"/>
<path d="M539.08 194.43H459.18V69.65H483.47V171.2H539.09V194.43H539.08Z" fill="white"/>
<path d="M610.711 163.81L630.251 169.62C627.901 177.6 623.301 184.17 616.431 189.33C609.561 194.49 601.031 197.07 590.821 197.07C578.381 197.07 567.821 192.88 559.141 184.49C550.461 176.1 546.121 164.87 546.121 150.79C546.121 136.71 550.341 126.47 558.791 117.97C567.241 109.46 577.211 105.21 588.711 105.21C602.091 105.21 612.561 109.2 620.131 117.18C627.701 125.16 631.481 136.13 631.481 150.09C631.481 151.03 631.451 152.09 631.391 153.26C631.331 154.43 631.301 155.37 631.301 156.08L631.121 157.31H569.171C569.401 162.94 571.631 167.64 575.861 171.39C580.081 175.15 585.131 177.02 591.001 177.02C600.971 177.02 607.541 172.62 610.711 163.82V163.81ZM569.701 141.28H608.421C608.181 136.47 606.451 132.42 603.231 129.14C600.001 125.86 595.281 124.21 589.061 124.21C583.431 124.21 578.851 125.97 575.331 129.49C571.811 133.01 569.931 136.94 569.701 141.28Z" fill="white"/>
<path d="M669.851 144.62V194.43H646.441V107.84H669.141V118.58C671.601 114.36 675.121 111.13 679.701 108.9C684.281 106.67 689.091 105.56 694.131 105.56C704.341 105.56 712.111 108.76 717.451 115.15C722.791 121.55 725.461 129.79 725.461 139.88V194.44H702.051V143.93C702.051 138.77 700.731 134.6 698.091 131.43C695.451 128.26 691.431 126.68 686.031 126.68C681.101 126.68 677.171 128.38 674.241 131.78C671.311 135.18 669.841 139.47 669.841 144.63L669.851 144.62Z" fill="white"/>
<path d="M738.311 170.32L758.371 165.92C758.601 169.68 760.101 172.81 762.861 175.34C765.621 177.86 769.401 179.12 774.211 179.12C777.851 179.12 780.661 178.3 782.661 176.66C784.651 175.02 785.651 172.96 785.651 170.5C785.651 166.16 782.541 163.34 776.321 162.05L764.881 159.41C756.781 157.65 750.711 154.48 746.661 149.91C742.611 145.33 740.591 139.88 740.591 133.54C740.591 125.68 743.671 118.99 749.831 113.48C755.991 107.97 763.701 105.21 772.971 105.21C778.841 105.21 784.001 106.06 788.461 107.76C792.921 109.46 796.381 111.63 798.841 114.27C801.301 116.91 803.181 119.58 804.471 122.28C805.761 124.98 806.581 127.62 806.931 130.2L787.391 134.6C786.921 131.55 785.541 128.85 783.251 126.5C780.961 124.15 777.591 122.98 773.131 122.98C770.081 122.98 767.471 123.8 765.301 125.44C763.131 127.08 762.041 129.14 762.041 131.6C762.041 135.82 764.681 138.41 769.961 139.34L782.281 141.98C790.611 143.74 796.981 146.97 801.381 151.66C805.781 156.35 807.981 161.99 807.981 168.56C807.981 176.3 805.051 182.99 799.181 188.62C793.311 194.25 785.041 197.07 774.361 197.07C768.261 197.07 762.801 196.16 757.991 194.34C753.181 192.52 749.451 190.18 746.811 187.3C744.171 184.43 742.171 181.55 740.831 178.68C739.481 175.81 738.631 173.02 738.281 170.32H738.311Z" fill="white"/>
<path d="M851.891 91.62L840.681 74.32L831.301 92.68L851.891 91.62Z" fill="#3796F6"/>
<path d="M877.26 73.4L882.81 53.54L862.84 58.67L877.26 73.4Z" fill="#3796F6"/>
<path d="M840.57 39.38L820.5 44.07L834.6 59.11L840.57 39.38Z" fill="#3796F6"/>
<path d="M850.624 25.7579L812.137 61.8749L816.242 66.2501L854.73 30.1331L850.624 25.7579Z" fill="#3796F6"/>
<path d="M817.089 70.6589L814.379 76.0121L869.249 103.789L871.959 98.4358L817.089 70.6589Z" fill="#3796F6"/>
<path d="M808.308 64.58C808.628 64.58 808.958 64.61 809.288 64.68C810.598 64.94 811.728 65.69 812.478 66.8C813.218 67.91 813.488 69.24 813.238 70.55C812.778 72.89 810.718 74.59 808.348 74.59C808.028 74.59 807.698 74.56 807.368 74.49C806.058 74.23 804.928 73.48 804.178 72.37C803.438 71.26 803.168 69.93 803.418 68.62C803.878 66.28 805.938 64.58 808.308 64.58ZM808.308 57.58C802.688 57.58 797.668 61.55 796.548 67.27C795.268 73.77 799.508 80.08 806.008 81.36C806.788 81.51 807.568 81.59 808.338 81.59C813.958 81.59 818.978 77.62 820.098 71.9C821.378 65.4 817.138 59.09 810.638 57.81C809.858 57.66 809.078 57.58 808.308 57.58Z" fill="#3796F6"/>
<path d="M886.211 125.14C885.171 125.14 884.111 125.04 883.081 124.83C874.351 123.12 868.641 114.62 870.361 105.89C871.841 98.34 878.491 92.86 886.171 92.86C887.211 92.86 888.271 92.96 889.301 93.17C898.031 94.88 903.741 103.38 902.021 112.11C900.541 119.66 893.891 125.14 886.211 125.14Z" fill="#3796F6"/>
<path d="M886.161 89V96.72C886.951 96.72 887.761 96.8 888.551 96.95C895.191 98.25 899.541 104.72 898.231 111.36C897.101 117.11 892.041 121.28 886.201 121.28C885.411 121.28 884.601 121.2 883.811 121.05C880.591 120.42 877.811 118.57 875.981 115.85C874.151 113.13 873.491 109.86 874.121 106.64C875.251 100.89 880.311 96.72 886.151 96.72V89M886.151 89C876.791 89 868.421 95.61 866.551 105.15C864.421 115.99 871.481 126.5 882.321 128.62C883.621 128.88 884.921 129 886.201 129C895.561 129 903.931 122.39 905.801 112.85C907.931 102.01 900.871 91.5 890.031 89.38C888.731 89.12 887.431 89 886.151 89Z" fill="#3796F6"/>
<path d="M885.065 92.2204L879.246 93.6841L883.279 109.715L889.097 108.251L885.065 92.2204Z" fill="#3796F6"/>
<path d="M869.752 31.379L863.934 32.8427L879.242 93.6969L885.06 92.2332L869.752 31.379Z" fill="#3796F6"/>
<path d="M863.279 7C863.989 7 864.709 7.07 865.419 7.21C871.369 8.38 875.259 14.17 874.089 20.12C873.079 25.27 868.549 29 863.319 29C862.609 29 861.889 28.93 861.179 28.79C855.229 27.62 851.339 21.83 852.509 15.88C853.519 10.73 858.049 7 863.279 7ZM863.279 0C854.849 0 847.329 5.95 845.639 14.53C843.719 24.28 850.079 33.74 859.829 35.66C860.999 35.89 862.169 36 863.319 36C871.749 36 879.269 30.05 880.959 21.47C882.879 11.72 876.519 2.26 866.769 0.34C865.599 0.11 864.429 0 863.279 0Z" fill="#3796F6"/>
</g>
<defs>
<clipPath id="clip0_3564_26850">
<rect width="906.18" height="197.07" fill="white"/>
</clipPath>
</defs>
</svg>
