<svg width="160" height="38" viewBox="0 0 160 38" fill="none" xmlns="http://www.w3.org/2000/svg">
<path d="M157.764 1.20573e-05C156.536 -0.00397284 155.54 0.980297 155.532 2.20366C155.532 2.62208 155.648 3.02854 155.868 3.38319L153.852 5.35173C152.828 4.68625 151.456 4.97715 150.788 6.00127C150.736 6.07698 150.692 6.16067 150.652 6.24435L146.188 5.20031C146.188 5.19632 146.188 5.19234 146.188 5.18835C146.208 3.961 145.22 2.94884 143.988 2.9329C142.756 2.91297 141.74 3.89724 141.724 5.12459C141.72 5.37564 141.76 5.6227 141.84 5.8618L133.232 10.9186C132.456 10.0898 131.176 9.98617 130.276 10.6756L125.512 6.69066C125.676 6.37984 125.764 6.03315 125.764 5.68248C125.772 4.45513 124.776 3.45492 123.544 3.44695C122.312 3.43898 121.308 4.43122 121.3 5.65857C121.296 6.14074 121.452 6.61494 121.744 7.00148L117.464 11.9746C117.148 11.8033 116.792 11.7116 116.432 11.7116C115.188 11.6997 114.176 12.6959 114.164 13.9352C114.152 15.1745 115.152 16.1827 116.396 16.1946C117.64 16.2066 118.652 15.2104 118.664 13.9711C118.668 13.4849 118.512 13.0107 118.22 12.6162L122.504 7.64305C123.264 8.05349 124.196 7.97778 124.876 7.44779L129.64 11.4327C129.476 11.7435 129.388 12.0902 129.384 12.4449C129.368 13.6722 130.352 14.6804 131.584 14.6963C132.816 14.7123 133.828 13.732 133.844 12.5046C133.844 12.4847 133.844 12.4648 133.844 12.4449C133.84 12.2177 133.804 11.9906 133.728 11.7754L142.336 6.71058C143.176 7.59921 144.576 7.64305 145.472 6.8102C145.672 6.62291 145.832 6.40375 145.952 6.16067L150.416 7.20471C150.416 7.20869 150.416 7.21268 150.416 7.22065C150.408 8.448 151.404 9.44821 152.636 9.45618C153.868 9.46415 154.872 8.47191 154.88 7.24456C154.884 6.82614 154.768 6.4157 154.544 6.06104L156.56 4.0925C157.596 4.754 158.976 4.45513 159.64 3.41906C160.304 2.38697 160.004 1.01218 158.964 0.350683C158.612 0.119559 158.192 1.20573e-05 157.764 1.20573e-05Z" fill="#3796F6"/>
<path d="M6.306 26.5156C7.446 26.4598 8.542 26.9619 9.24599 27.8585C9.38999 28.0578 9.51799 28.265 9.62999 28.4802L11.798 27.5437C11.618 27.1373 11.382 26.7587 11.102 26.416C9.90199 25.0332 8.142 24.2562 6.31 24.304C4.474 24.2442 2.71 25.0213 1.518 26.416C-0.506 29.2373 -0.506 33.0269 1.518 35.8482C3.926 38.4863 8.022 38.6775 10.67 36.2826C10.822 36.1431 10.966 35.9997 11.106 35.8482C11.382 35.5175 11.618 35.1549 11.802 34.7683L9.60999 33.8319C9.50199 34.0391 9.38199 34.2423 9.24999 34.4336C7.858 36.0515 5.414 36.2388 3.79 34.852C3.79 34.852 3.79 34.852 3.786 34.848C3.638 34.7205 3.498 34.581 3.37 34.4336C2.15 32.4093 2.15 29.8829 3.37 27.8585C4.062 26.9579 5.162 26.4519 6.306 26.5156Z" fill="#1E244D"/>
<path d="M19.3414 24.3318C17.4414 24.2321 15.6174 25.065 14.4534 26.5633L14.1174 27.0654L16.2614 28.0975C16.3454 27.954 16.4414 27.8146 16.5494 27.691C17.2294 26.894 18.2454 26.4597 19.2934 26.5155C20.1654 26.4677 21.0334 26.7107 21.7494 27.2089C22.3214 27.6273 22.6974 28.2609 22.7854 28.9622L20.2814 29.3209C18.3054 29.6078 16.9814 29.7034 15.5854 30.4964C14.3734 31.1738 13.6174 32.449 13.6094 33.8318C13.6134 34.7244 13.9094 35.5931 14.4494 36.3064C15.2734 37.3146 16.4934 37.9163 17.7974 37.9641C18.9254 38.0079 20.0414 37.7409 21.0254 37.195C21.9214 36.7487 22.6534 36.0354 23.1214 35.1547V37.6294H25.1934V29.4922C25.1894 28.6713 25.0014 27.8584 24.6414 27.1172C23.6774 25.1726 21.7254 24.3318 19.3414 24.3318ZM22.4494 33.3536C21.6414 34.9635 19.9414 35.9398 18.1374 35.8282C16.9494 35.8123 15.9854 34.8718 15.9454 33.6923C15.9694 32.0386 18.0174 31.6998 19.9454 31.389C21.2934 31.1499 22.1374 31.0304 22.8854 30.9108C22.9454 31.7477 22.7934 32.5885 22.4494 33.3536Z" fill="#1E244D"/>
<path d="M37.0413 31.2655C37.0573 31.8353 37.0093 32.4092 36.8973 32.967C36.7853 33.7441 36.3893 34.4494 35.7893 34.9595C35.2293 35.4138 34.5373 35.6768 33.8133 35.7047C32.9733 35.7485 32.1453 35.4895 31.4733 34.9834C30.3893 34.1426 30.1973 32.728 30.1973 31.0702V24.6665H27.8373V31.0742C27.8133 33.4014 28.1013 35.3699 29.8373 36.7607C31.9893 38.3945 34.9893 38.3267 37.0613 36.5933C37.1573 36.5096 37.2453 36.422 37.3253 36.3303V37.6254H39.3973V24.6665H37.0373L37.0413 31.2655Z" fill="#1E244D"/>
<path d="M51.6695 31.3371C50.9295 30.7553 50.0655 30.3528 49.1415 30.1615C48.2255 29.9224 47.4055 29.7033 46.7815 29.512C46.2015 29.3885 45.6575 29.1334 45.1935 28.7708C45.0015 28.5516 44.8975 28.2687 44.9055 27.9778C44.9535 27.4877 45.2695 27.0653 45.7255 26.874C46.2855 26.623 46.8935 26.4994 47.5095 26.5154C48.1175 26.5114 48.7215 26.6508 49.2655 26.9218C49.9455 27.2884 50.4615 27.8941 50.7095 28.6234L52.9935 28.0695C52.5375 26.7146 51.5575 25.5909 50.2735 24.9493C49.4215 24.5149 48.4815 24.2918 47.5255 24.3037C46.5695 24.2559 45.6135 24.4273 44.7335 24.8058C43.4255 25.3518 42.5575 26.607 42.5175 28.0216C42.5215 28.994 42.9655 29.9105 43.7215 30.5202C44.4855 31.0701 45.3535 31.4526 46.2735 31.6479C47.1175 31.887 47.8415 32.0544 48.4895 32.2456C49.1215 32.3732 49.7135 32.6441 50.2255 33.0386C50.5455 33.3136 50.7135 33.724 50.6815 34.1425C50.6375 34.5688 50.4095 34.9554 50.0535 35.1985C49.3375 35.6049 48.5175 35.7962 47.6935 35.7484C46.6935 35.8201 45.7135 35.4615 44.9975 34.7641C44.5415 34.2182 44.2575 33.5487 44.1775 32.8434L41.9375 33.3933C42.1415 34.4533 42.6135 35.4455 43.3095 36.2704C44.4655 37.4459 46.0695 38.0636 47.7175 37.9719C48.9775 38.0277 50.2295 37.7289 51.3295 37.1072C52.3135 36.5055 52.9575 35.4734 53.0655 34.3258C53.1655 33.1622 52.6375 32.0185 51.6695 31.3371Z" fill="#1E244D"/>
<path d="M60.6108 24.3318C58.7108 24.2321 56.8868 25.065 55.7228 26.5633L55.3868 27.0654L57.5308 28.0975C57.6108 27.954 57.7108 27.8146 57.8188 27.691C58.4988 26.894 59.5188 26.4597 60.5668 26.5155C61.4388 26.4677 62.3068 26.7107 63.0228 27.2089C63.5948 27.6273 63.9708 28.2609 64.0588 28.9622L61.5548 29.3209C59.5788 29.6078 58.2548 29.7034 56.8588 30.4964C55.6468 31.1738 54.8908 32.449 54.8828 33.8318C54.8868 34.7244 55.1828 35.5931 55.7268 36.3064C56.5508 37.3146 57.7708 37.9163 59.0748 37.9641C60.2028 38.0079 61.3188 37.7409 62.3028 37.195C63.1988 36.7487 63.9308 36.0354 64.3988 35.1547V37.6294H66.4708V29.4922C66.4668 28.6713 66.2788 27.8584 65.9188 27.1172C64.9428 25.1726 62.9948 24.3318 60.6108 24.3318ZM63.7148 33.3536C62.9068 34.9635 61.2108 35.9398 59.4028 35.8282C58.2148 35.8123 57.2508 34.8718 57.2108 33.6923C57.2348 32.0386 59.2828 31.6998 61.2108 31.389C62.5588 31.1499 63.4028 31.0304 64.1508 30.9108C64.2108 31.7477 64.0628 32.5885 63.7148 33.3536Z" fill="#1E244D"/>
<path d="M73.1159 20.3467H69.8359V37.6252H80.5799V34.3616H73.1119L73.1159 20.3467Z" fill="#1E244D"/>
<path d="M88.4788 24.3118C86.5788 24.272 84.7588 25.061 83.4908 26.4717C82.4348 27.8026 81.8748 29.4563 81.9028 31.1499C81.8428 32.8515 82.4068 34.5172 83.4908 35.8282C84.7748 37.2149 86.5828 37.996 88.4788 37.988C90.4108 38.0956 92.2868 37.3265 93.5868 35.8999C93.8748 35.5692 94.1308 35.2185 94.3588 34.8439L91.1068 33.4293C91.0068 33.5488 90.9628 33.6923 90.8668 33.8357C90.2908 34.557 89.4068 34.9675 88.4788 34.9396C87.5588 34.9675 86.6828 34.557 86.1188 33.8357C85.7428 33.3018 85.5108 32.6841 85.4468 32.0386H95.0108C95.0348 31.7516 95.0588 31.4368 95.0588 31.1499C95.0988 29.4524 94.5348 27.7946 93.4708 26.4717C92.2068 25.049 90.3788 24.2561 88.4788 24.3118ZM85.5908 29.5201C85.7028 29.1415 85.8828 28.7829 86.1188 28.4641C86.6788 27.7349 87.5588 27.3204 88.4788 27.3603C89.4068 27.3244 90.2948 27.7349 90.8628 28.4641C91.0828 28.7909 91.2548 29.1455 91.3668 29.5201H85.5908Z" fill="#1E244D"/>
<path d="M104.115 24.3118C102.843 24.3517 101.611 24.79 100.599 25.5591V24.6705H97.7109V37.6294H101.011V31.9907C100.987 31.2057 101.039 30.4167 101.155 29.6396C101.259 28.9861 101.603 28.3963 102.119 27.9819C102.571 27.6631 103.107 27.4878 103.663 27.4798C104.415 27.428 105.159 27.687 105.711 28.2011C106.371 29.0379 106.679 30.0939 106.579 31.1539V37.6333H109.903V31.1499C109.903 28.8945 109.687 27.165 108.143 25.7504C107.023 24.79 105.591 24.276 104.115 24.3118Z" fill="#1E244D"/>
<path d="M121.773 30.9309C121.025 30.3491 120.149 29.9466 119.221 29.7553C118.569 29.588 117.825 29.3967 117.173 29.2054C116.669 29.1058 116.197 28.8826 115.801 28.5599C115.761 28.4682 115.737 28.3726 115.729 28.273C115.729 28.1295 115.801 27.9143 116.165 27.6712C116.609 27.46 117.097 27.3604 117.585 27.3843C118.073 27.3764 118.553 27.4919 118.981 27.7191C119.449 27.9661 119.809 28.3766 119.993 28.8707L123.169 28.1016C122.677 26.7428 121.685 25.623 120.401 24.9575C119.541 24.5271 118.593 24.308 117.633 24.308C116.661 24.2641 115.689 24.4355 114.789 24.8101C113.353 25.3998 112.413 26.7906 112.405 28.3367C112.429 29.3768 112.925 30.3451 113.753 30.9747C114.521 31.5406 115.401 31.9351 116.337 32.1264C117.061 32.3176 117.733 32.485 118.433 32.6763C118.925 32.7799 119.385 32.9951 119.781 33.3019C119.937 33.4533 120.013 33.6645 119.997 33.8797C119.969 34.1148 119.845 34.33 119.661 34.4774C119.105 34.7923 118.469 34.9397 117.829 34.9078C117.033 34.9835 116.241 34.7126 115.661 34.1626C115.305 33.7522 115.093 33.2381 115.057 32.7002L111.953 33.4693C112.181 34.4934 112.649 35.4498 113.325 36.2547C114.505 37.4542 116.149 38.0838 117.829 37.9802C119.089 38.0439 120.341 37.753 121.441 37.1394C122.501 36.4978 123.189 35.394 123.297 34.1626C123.393 32.8994 122.817 31.6681 121.773 30.9309Z" fill="#1E244D"/>
</svg>
